<svg width="41" height="41" viewBox="0 0 41 41" fill="none" xmlns="http://www.w3.org/2000/svg">
<path d="M31.6675 33.427C28.5676 36.113 24.6018 37.5891 20.5001 37.5833C11.065 37.5833 3.41675 29.9351 3.41675 20.5C3.41675 11.0649 11.065 3.41666 20.5001 3.41666C29.9352 3.41666 37.5834 11.0649 37.5834 20.5C37.5834 24.149 36.4388 27.5315 34.4913 30.3058L29.0417 20.5H34.1667C34.1665 17.3502 33.0782 14.2971 31.0861 11.8574C29.0939 9.41756 26.3201 7.74079 23.234 7.11069C20.1478 6.4806 16.9388 6.93586 14.1497 8.39947C11.3605 9.86308 9.1626 12.2452 7.92764 15.1428C6.69269 18.0404 6.49654 21.2757 7.37238 24.3013C8.24822 27.3269 10.1423 29.9571 12.7341 31.7469C15.326 33.5368 18.4566 34.3764 21.5962 34.1238C24.7359 33.8711 27.6919 32.5417 29.9643 30.3605L31.6675 33.427Z" fill="white"/>
</svg>
